<svg width="1565" height="1657" viewBox="0 0 1565 1657" fill="none" xmlns="http://www.w3.org/2000/svg">
<path d="M1560.37 1536.93C1553.34 1530.46 1546.01 1524.23 1538.63 1518.1C1526.33 1508.01 1513.83 1497.87 1505.05 1484.66C1497.32 1473.06 1490.34 1460.61 1485.12 1447.7C1477.49 1428.77 1464.08 1415.07 1449.43 1402.01C1440.54 1394.13 1430.15 1388.4 1420.61 1381.52C1391.35 1360.28 1362.83 1338.29 1340.69 1308.97C1334.82 1301.18 1334.97 1298.37 1339.39 1291.69C1340.39 1290.14 1341.15 1288.33 1342.45 1287.07C1347.42 1282.4 1346.22 1278.94 1341.75 1274.27C1325.63 1257.55 1310.27 1240.27 1299.73 1219.03C1291.55 1202.51 1281.56 1186.95 1276.34 1169.02C1272.93 1157.27 1267.71 1146.28 1262.53 1135.28C1249.23 1106.91 1234.22 1079.29 1224.43 1049.36C1222.27 1042.74 1219.71 1035.91 1215.75 1030.28C1204.5 1014.02 1197.73 995.637 1189.34 978.012C1187.14 973.343 1184.98 968.572 1182.07 964.354C1170.42 947.483 1163.04 928.553 1155.81 909.622C1152.25 900.232 1147.83 891.345 1141.66 883.461C1134.98 874.975 1130.01 865.535 1125.99 855.543C1119.72 840.077 1112.44 825.265 1102.2 811.958C1098.58 807.288 1095.77 802.116 1093.51 796.593C1084.28 773.947 1073.13 752.406 1057.12 733.626C1052.35 728.002 1048.49 721.575 1045.78 714.696C1040.71 701.841 1032.97 690.543 1024.44 679.898C1015.15 668.299 1007.32 655.846 1000.85 642.54C995.275 631.141 987.846 621.149 979.262 611.859C975.246 607.541 971.18 603.223 967.616 598.503C953.56 579.723 936.191 564.358 918.37 549.344C907.226 539.954 894.727 533.126 881.424 527.351C867.519 521.325 853.011 517.007 838.905 511.685C835.09 510.279 831.275 508.923 829.769 504.404C826.707 495.315 822.641 486.478 820.633 477.188C817.872 464.535 812.601 453.739 804.168 443.897C797.14 435.662 789.56 427.628 784.942 417.033C791.166 415.175 796.939 413.92 802.31 411.711C827.209 401.568 844.126 383.39 854.517 358.887C857.278 352.359 860.491 346.233 865.662 341.262C878.964 328.407 890.209 313.695 901.453 299.083C909.134 289.091 917.517 279.902 926.703 271.265C935.539 262.93 944.223 254.343 951.05 244.1C957.827 234.007 961.642 223.06 961.14 210.809C960.337 192.38 955.166 175.258 945.227 159.692C935.388 144.377 927.958 128.108 923.19 110.483C920.178 99.4864 916.915 88.4898 910.088 78.9493C891.012 52.3364 866.214 32.2512 837.55 16.9363C828.464 12.0656 818.475 8.852 808.184 7.2954C775.655 2.42474 743.025 -1.19059 710.095 0.366007C691.672 1.21963 673.199 3.17794 655.629 9.05286C622.95 19.9993 596.997 41.1891 573.604 65.6429C566.978 72.5722 562.309 81.0582 558.745 90.1468C556.436 95.9715 553.826 101.746 550.563 107.069C545.292 115.655 540.673 124.693 539.067 134.485C536.356 151.306 529.078 166.822 525.915 183.442C524.911 188.665 523.003 190.121 517.331 190.522C496.047 191.878 476.268 197.05 459.552 212.114C446.199 224.165 432.997 236.769 417.033 245.556C406.943 251.079 397.406 257.306 388.42 264.386C384.956 267.097 381.292 269.457 377.025 271.064C345.851 282.814 316.585 298.33 288.875 316.808C279.036 323.336 269.348 330.115 259.66 336.843C234.46 354.468 212.924 376.361 190.184 396.848C188.578 398.304 187.323 400.212 185.867 401.919C167.695 423.31 151.23 446.006 135.016 468.903C117.095 494.11 103.942 521.577 92.3465 549.997C88.2804 559.939 84.3649 569.982 82.7585 580.577C80.2988 596.695 76.1323 612.362 71.5139 627.928C59.8678 667.445 53.4423 707.766 53.5427 748.991C53.5427 764.055 54.3459 779.219 54.9985 794.283C56.8558 836.763 50.581 878.089 39.3866 918.912C37.0774 927.448 34.7181 935.984 32.7101 944.621C25.8329 974.447 18.9054 1004.27 12.4298 1034.2C3.24334 1076.23 3.14295 1117.65 22.4695 1157.42C24.1261 1160.79 23.9253 1163.3 22.068 1166.61C15.7931 1178.01 11.225 1190.01 10.6728 1203.27C10.5724 1205.78 9.61862 1208.29 8.96603 1210.8C0.482407 1243.59 -1.22436 1277.23 0.733396 1310.62C2.99235 1349.79 13.7349 1387.5 28.895 1423.85C34.8687 1438.16 42.1475 1451.87 48.1714 1466.08C55.2997 1483 65.4901 1497.77 76.7346 1511.88C92.6477 1531.81 111.723 1548.78 129.193 1567.26C155.045 1594.68 186.369 1613.51 220.555 1628.07C246.959 1639.32 273.966 1648.81 302.479 1653.78C346.002 1661.36 387.466 1655.44 427.525 1637.31C433.097 1634.75 439.422 1633.19 444.944 1630.68C458.397 1624.65 472.804 1620.79 485.505 1613.11C502.522 1602.76 519.64 1592.72 536.206 1581.57C579.427 1552.45 616.474 1516.6 651.312 1478.33C672.044 1455.54 686.401 1428.22 700.658 1401.11C710.396 1382.53 719.181 1363.45 724.803 1342.96C729.02 1327.7 734.542 1312.73 740.465 1298.07C745.385 1286.02 748.748 1273.67 751.158 1260.96C754.973 1240.83 753.617 1220.49 753.366 1200.2C753.166 1186.04 756.83 1172.29 756.027 1158.03C767.272 1171.83 772.793 1187.7 775.153 1204.57C777.111 1218.53 780.524 1232.04 784.992 1245.35C792.321 1267.39 800.302 1289.33 802.913 1312.53C804.77 1329.1 808.535 1345.22 812.451 1361.34C816.366 1377.46 821.035 1393.52 821.235 1410.25C821.386 1422.45 822.189 1434.55 824.498 1446.55C825.753 1453.08 825.804 1459.76 826.155 1466.38C827.51 1491.09 825.954 1515.79 826.406 1540.55C826.607 1551.65 828.364 1553.5 839.207 1553.3C842.118 1553.25 845.03 1552.6 847.941 1552.2C854.517 1551.34 860.893 1549.64 867.569 1548.98C884.034 1547.33 900.5 1546.12 916.915 1543.61C938.701 1540.25 957.877 1532.16 976.099 1520.51C985.637 1514.39 995.426 1508.66 1005.32 1502.69C1006.77 1507.21 1005.32 1510.77 1004.76 1514.34C1002.91 1526.74 1000.95 1539.09 1001.05 1551.7C1001.15 1566.86 1009.08 1576.5 1022.18 1582.48C1032.77 1587.35 1044.42 1589.2 1055.61 1588.4C1076.55 1586.89 1097.48 1584.43 1117.81 1578.96C1137.19 1573.74 1156.41 1572.89 1175.64 1578.71C1189.04 1582.78 1202.45 1587 1215.35 1592.42C1233.87 1600.3 1253.2 1604.72 1272.93 1607.53C1285.53 1609.29 1297.52 1607.98 1309.42 1601.91C1325.79 1593.57 1342.65 1585.84 1361.98 1587.6C1364.49 1587.85 1367.05 1588.3 1369.61 1588.2C1386.33 1587.5 1395.11 1573.04 1386.17 1559.98C1379.6 1550.39 1370.96 1542.81 1358.06 1542.81C1353.65 1542.81 1349.23 1542.41 1344.81 1542.56C1294.91 1544.77 1250.59 1530.1 1210.43 1500.38C1187.74 1483.61 1171.17 1461.61 1153.5 1440.37C1148.98 1434.95 1145.42 1428.47 1144.52 1420.49C1154.1 1420.34 1163.14 1421.24 1171.57 1418.13C1187.79 1412.05 1204 1405.93 1218.71 1396.39C1230.11 1389.01 1241.75 1382.03 1253.75 1374.54C1260.88 1383.83 1266.75 1393.52 1269.86 1404.67C1272.42 1413.86 1273.88 1423.4 1277.8 1432.19C1285.43 1449.51 1296.67 1462.02 1317.2 1462.97C1322.32 1463.22 1327.49 1463.82 1332.56 1464.83C1343.76 1467.04 1355.6 1465.88 1366.25 1470.55C1383.16 1477.93 1399.58 1486.22 1412.93 1499.52C1421.82 1508.36 1431.5 1516.4 1440.19 1525.48C1454.5 1540.45 1472.01 1550.44 1490.19 1559.63C1492.85 1560.98 1495.56 1561.84 1498.62 1561.84C1514.13 1561.74 1529.64 1561.74 1545.1 1561.84C1552.43 1561.84 1557.75 1558.22 1561.92 1552.75C1566.34 1546.93 1566.09 1542.21 1560.62 1537.18L1560.37 1536.93ZM999.291 893.504C1021.03 895.061 1041.96 900.484 1062.29 908.718C1092.21 920.87 1094.37 949.291 1076.3 970.531C1073.18 974.146 1069.82 977.46 1065.7 979.619C1062.09 978.414 1062.89 975.351 1062.29 973.091C1056.97 954.312 1048.18 937.49 1035.08 923.029C1026.85 913.941 1015.76 909.672 1004.41 906.308C997.785 904.35 992.314 908.166 987.595 912.585C976.902 922.527 978.559 919.816 970.778 911.631C967.766 908.467 965.106 905.003 961.441 900.684C974.392 894.257 986.942 892.65 999.291 893.504ZM842.068 364.41C830.271 390.47 809.539 404.078 782.532 409.3C780.624 409.652 778.918 409.3 777.512 407.894C771.388 401.718 765.314 395.592 758.186 388.412C788.456 385.148 818.525 386.102 842.068 364.36V364.41ZM548.505 285.525C552.32 284.471 554.077 285.927 555.532 288.789C563.112 303.903 574.508 316.105 586.555 327.453C610.701 350.2 637.256 369.23 671.191 374.754C672.596 374.955 674.102 374.904 675.859 377.465C645.238 390.521 613.663 402.019 592.228 431.193C572.951 381.533 541.125 345.881 493.235 324.541C503.677 319.971 508.847 311.536 509.048 299.585C509.199 291.149 509.5 291.149 517.582 289.994C520.142 289.643 522.702 289.291 525.262 289.04C528.676 288.689 530.734 290.095 531.537 293.66C535.654 312.339 548.956 322.934 565.02 330.868C573.303 334.985 581.435 339.303 588.864 344.827C597.097 350.903 603.272 358.635 606.635 368.327C610.801 380.277 608.793 386.403 598.904 394.437C597.8 395.341 596.294 395.893 596.394 397.701C606.685 400.513 614.868 394.287 616.022 382.939C617.378 369.532 612.408 358.384 603.974 348.442C595.19 338.098 583.794 331.269 571.696 325.646C563.263 321.729 555.332 317.21 548.856 310.381C545.794 307.167 542.782 303.753 541.276 299.585C537.411 288.639 536.808 288.789 548.505 285.626V285.525ZM487.563 209.152C499.812 202.774 513.867 202.774 527.471 201.871C529.228 201.77 531.337 201.569 532.039 203.879C532.692 205.888 531.587 207.394 530.232 208.7C520.042 218.14 514.52 229.739 513.365 243.547C513.064 247.313 511.407 248.97 507.592 246.46C494.039 237.522 478.979 235.764 463.166 237.12C456.741 237.672 451.068 239.832 445.446 242.644C440.225 245.255 435.808 249.372 429.935 250.828L429.332 250.175C446.651 233.505 466.429 220.148 487.613 209.152H487.563ZM1004.31 1028.83C973.338 1048.26 940.86 1064.93 908.08 1080.95C894.375 1087.68 879.767 1091.74 864.758 1093.8C848.544 1096.01 833.484 1102.34 817.722 1106.11C792.823 1112.03 767.673 1115.6 742.222 1115.8C725.406 1115.95 715.165 1105.1 706.38 1091.74C688.911 1065.18 677.215 1035.61 662.055 1007.89C636.855 961.894 617.377 913.137 593.583 866.489C580.833 841.433 565.522 817.984 550.864 794.082C544.338 783.387 537.762 772.742 531.085 762.097C528.325 757.728 525.664 753.259 522.351 749.343C517.331 743.367 512.662 743.618 507.542 749.292C505.484 751.552 504.681 754.364 503.727 757.176C496.247 779.169 488.718 801.112 481.188 823.105C479.029 829.382 476.268 835.408 472.955 841.232C469.491 847.358 467.082 853.986 465.325 860.765C455.737 897.923 443.388 934.227 432.394 970.983C428.981 982.381 423.409 993.076 418.841 1004.12C416.08 989.21 414.925 974.698 412.516 960.287C409.453 941.959 404.082 924.435 396.151 907.614C393.641 902.291 391.733 896.667 389.424 891.244C388.269 888.533 387.065 885.821 385.508 883.361C383.852 880.75 381.392 878.641 378.129 880.398C375.318 881.905 376.021 884.817 376.673 887.328C378.531 894.508 380.84 901.538 384.354 908.066C401.171 939.399 406.391 973.644 409.102 1008.34C410.809 1030.48 401.673 1049.26 386.613 1065.28C372.206 1080.55 354.235 1090.74 336.163 1100.83C312.519 1113.99 286.918 1117.91 260.362 1117.55C241.889 1117.3 223.466 1117.25 204.993 1116.75C197.262 1116.55 189.532 1114.59 181.851 1114.84C158.258 1115.6 134.614 1116.1 111.171 1118.41C86.0716 1120.87 61.8255 1127.25 40.8926 1142.46C38.3826 1144.27 36.8265 1143.21 35.2703 1141.46C32.3085 1138.09 30.401 1134.17 28.7946 1130.01C17.0481 1099.18 18.052 1067.84 24.9795 1036.36C31.2544 1007.89 37.73 979.519 44.3563 951.148C46.9666 940.001 50.079 929.005 53.0407 917.958C63.1307 880.348 68.6024 842.086 68.3012 803.171C68.1506 780.726 66.4439 758.23 66.745 735.785C67.0964 709.574 70.6104 683.564 76.7346 658.055C83.0095 631.894 91.4429 606.236 96.011 579.623C97.6174 570.283 101.332 561.195 104.997 552.357C116.291 525.041 129.243 498.679 146.612 474.477C162.123 452.885 177.584 431.294 194.803 411.008C196.258 409.3 197.463 407.392 199.07 405.936C221.709 385.901 242.642 363.858 267.742 346.685C276.577 340.659 285.462 334.684 294.146 328.407C312.419 315.201 332.749 305.611 352.277 295.518C353.733 295.97 353.833 296.522 353.03 297.275C332.8 315.804 320.551 340.057 306.094 362.703C284.659 396.295 263.324 429.938 242.492 463.932C234.209 477.439 223.767 489.541 213.326 501.491C196.811 520.371 180.496 539.452 163.83 558.182C144.252 580.225 135.869 607.24 128.791 634.907C125.026 649.569 122.566 664.483 120.358 679.446C119.253 686.777 119.153 694.159 120.659 701.49C124.072 718.11 127.335 734.731 128.891 751.652C130.096 764.708 137.224 775.102 143.248 786.048C149.473 797.346 155.949 808.443 163.328 819.139C178.839 841.584 192.644 865.134 208.607 887.328C220.856 904.4 230.996 922.929 241.186 941.256C251.327 959.534 255.493 979.82 258.555 1000.31C259.107 1003.92 258.304 1008.19 263.625 1008.49C268.545 1008.79 270.954 1005.63 272.26 1001.41C285.964 956.622 292.088 911.53 278.334 865.485C271.256 841.785 266.688 817.482 262.822 793.028C261.366 783.789 263.023 775.503 267.541 767.52C273.013 757.778 280.091 749.343 287.47 741.007C310.561 714.846 330.39 686.426 345.148 654.842C355.791 632.095 364.726 608.696 368.34 583.59C368.742 580.677 369.746 577.865 370.599 574.652C378.531 576.71 384.304 582.033 390.077 586.954C408.098 602.269 424.664 618.939 438.418 638.372C450.115 654.842 459.05 672.366 464.02 691.899C466.429 701.339 463.769 709.222 456.59 715.851C448.107 723.684 437.866 728.956 428.328 735.132C411.863 745.828 399.414 760.189 389.123 776.608C386.914 780.123 382.898 784.793 387.767 788.358C392.988 792.174 395.498 786.299 398.008 783.086C408.148 770.382 418.439 757.929 431.139 747.535C436.661 743.016 443.338 740.756 448.91 736.388C451.821 734.128 455.034 732.27 458.046 730.161C480.686 714.344 482.392 688.836 473.507 669.253C458.247 635.61 437.113 606.135 409.805 581.079C399.464 571.589 389.675 561.546 377.979 553.713C375.368 551.955 373.461 550.047 374.164 546.532C378.029 527.251 375.067 507.416 378.581 488.135C383.199 462.375 387.516 436.516 396.251 411.711C402.777 393.031 412.064 375.256 426.872 362.401C439.874 351.053 454.03 339.755 473.306 338.952C483.999 338.5 493.386 341.965 501.468 347.237C532.591 367.523 557.59 393.282 572.048 428.582C582.439 453.99 588.362 480.603 596.595 506.563C597.499 509.375 597.8 512.388 599.005 515.049C615.219 551.403 626.012 590.067 646.342 624.614C655.679 640.531 664.012 657.001 671.743 673.772C692.073 717.508 719.181 757.025 746.389 796.543C767.974 827.876 789.811 858.957 815.161 887.428C832.48 906.861 852.258 923.28 875.45 935.331C885.139 940.353 895.43 941.759 906.323 942.612C926.653 944.169 946.783 943.566 967.013 942.16C971.13 941.859 975.095 941.206 978.86 939.599C984.934 936.988 986.39 934.277 985.687 927.498C984.934 919.916 993.267 911.681 1000.75 913.69C1012.19 916.702 1022.83 921.171 1031.17 930.561C1043.67 944.721 1051.4 961.141 1057.67 978.665C1059.78 984.59 1058.33 988.105 1054.16 992.223C1039.3 1006.88 1021.88 1017.98 1004.36 1028.98L1004.31 1028.83ZM1005.77 1104.35C1014.55 1111.48 1020.78 1120.57 1026.25 1129.86C1045.52 1162.65 1062.54 1196.54 1071.18 1234C1073.64 1244.79 1075.34 1255.69 1074.39 1266.89C1074.19 1269.5 1074.19 1272.11 1069.52 1275.12C1046.48 1218.23 1019.12 1164.05 1005.82 1104.35H1005.77ZM1292.7 1549.74C1309.72 1553.3 1327.09 1553.75 1344.51 1553.1C1349.68 1552.9 1354.8 1553.15 1359.97 1553.3C1368.4 1553.55 1373.17 1559.48 1377.24 1565.6C1380.05 1569.77 1378.24 1573.94 1373.83 1576.6C1369.96 1578.91 1365.84 1580.17 1361.23 1579.86C1342.7 1578.66 1325.53 1582.58 1309.12 1591.56C1300.79 1596.13 1291.5 1599.45 1281.36 1597.79C1260.28 1596.49 1240 1591.87 1220.42 1583.58C1205.81 1577.4 1190.8 1572.43 1175.44 1568.27C1157.97 1563.55 1140.45 1562.74 1122.93 1567.16C1102.1 1572.38 1080.96 1575.25 1059.68 1577.71C1049.59 1578.86 1039.6 1577.71 1030.16 1574.64C1017.11 1570.42 1010.44 1563.34 1010.89 1548.63C1011.29 1533.87 1014.3 1519.41 1016.56 1504.85C1018.42 1493.05 1025.19 1486.52 1034.38 1480.34C1060.43 1462.87 1086.69 1445.75 1113.34 1429.23C1115.2 1428.07 1117.21 1427.07 1119.22 1426.11C1130.21 1420.89 1130.96 1421.24 1136.23 1432.59C1137.79 1435.95 1139.25 1439.42 1141.35 1442.38C1179.2 1495.91 1226.79 1535.93 1292.75 1549.74H1292.7ZM1542.95 1555.41C1527.84 1556.01 1512.93 1553.2 1498.02 1551.39C1491.44 1550.59 1485.37 1547.28 1479.9 1543.46C1466.59 1534.22 1453.49 1524.83 1441.85 1513.28C1421.97 1493.6 1401.49 1474.42 1375.28 1462.72C1367.75 1459.35 1360.27 1456.79 1352.14 1455.94C1339.34 1454.53 1326.54 1453.03 1313.74 1451.42C1304.05 1450.22 1296.82 1445.65 1291.35 1437.16C1285.63 1428.27 1282.92 1418.38 1279.65 1408.64C1275.34 1395.73 1271.97 1382.48 1263.59 1371.33C1261.23 1368.22 1263.79 1366.76 1265.75 1365.1C1276.29 1356.47 1286.78 1347.63 1295.52 1337.14C1301.69 1329.7 1308.62 1323.18 1316.25 1317.3C1327.74 1308.41 1328.35 1308.06 1335.88 1319.91C1347.02 1337.44 1363.84 1349.04 1378.44 1363C1397.47 1381.22 1421.11 1393.22 1441.39 1409.74C1452.89 1419.08 1463.98 1429.28 1470.51 1442.63C1476.03 1453.88 1482.51 1464.68 1487.53 1476.07C1495.01 1493.25 1507.81 1505.75 1521.31 1517.85C1529.29 1524.98 1537.52 1531.76 1546.41 1537.79C1550.02 1540.25 1554.04 1542.31 1556.9 1546.37C1554.04 1552.05 1549.27 1555.11 1543 1555.41H1542.95Z" fill="#273AAA"/>
</svg>
