<svg width="683" height="291" viewBox="0 0 683 291" fill="none" xmlns="http://www.w3.org/2000/svg">
<path d="M608.645 288.816C627.073 281.088 645.52 273.361 663.948 265.633C666.572 264.536 669.196 263.439 671.8 262.341C675.954 260.604 674.523 254.607 669.598 254.861C629.166 256.904 594.584 234.868 572.106 209.433C545.734 179.548 533.792 143.101 514.736 110.121C505.383 93.9293 494.372 77.5615 478.749 64.8052C463.125 52.0489 442.03 45.0098 419.518 42.6028C408.3 41.408 396.933 41.1041 385.613 41.1521C374.293 41.2001 363.072 41.7448 351.988 43.4094C332.065 46.3838 312.932 53.5551 299.612 66.331C275.384 89.5844 271.37 124.264 290.077 150.551C299.738 164.131 314.52 175.211 331.554 182.473C340.08 186.105 349.164 188.917 358.562 190.619C368.388 192.392 379.212 193.643 389.147 191.796C410.3 187.841 415.487 168.632 409.397 153.766C402.929 137.951 388.11 125.689 371.355 116.661C337.5 98.4061 296.501 91.5968 256.916 86.8741C217.039 82.1138 176.297 79.6664 137.767 69.5225C119.064 64.6053 100.92 57.752 85.1869 48.0577C69.4544 38.3635 56.456 25.0206 41.2903 14.2523C34.0512 9.11427 26.3076 4.39721 17.5546 1.08062C15.1392 0.171185 12.3502 0.403436 10.8111 2.38393C9.51871 4.03415 9.98244 6.96384 12.3783 7.87289C29.9038 14.5065 43.1662 26.482 56.5415 37.4864C70.2593 48.7687 84.6717 58.6923 102.034 66.0727C136.642 80.7675 175.642 85.9733 213.952 90.1761C252.419 94.398 291.649 97.5177 328.354 108.328C346.3 113.613 364.238 120.766 378.594 131.167C391.728 140.682 404.268 154.814 401.79 169.974C400.593 177.212 395.191 182.627 386.286 184.159C377.38 185.691 366.975 184.209 358.112 182.359C340.501 178.66 324.144 171.124 311.481 160.469C299.084 150.042 290.722 136.807 288.496 122.32C286.414 108.729 289.844 94.3062 297.909 82.2725C306.842 68.9632 321.13 59.2706 338.77 54.4158C358.942 48.8609 380.783 48.6693 401.787 49.4347C423.378 50.2276 445.3 53.2773 462.911 64.1257C479.468 74.3151 490.757 89.4755 500.179 104.264C520.525 136.2 531.973 171.664 554.784 202.596C574.138 228.847 603.966 253.518 641.616 260.884C650.659 262.658 659.955 263.368 669.254 262.897L667.052 255.417C648.625 263.145 630.177 270.872 611.75 278.6C609.126 279.697 606.502 280.794 603.897 281.892C598.292 284.239 602.978 291.226 608.584 288.879L608.586 288.815L608.645 288.816Z" fill="#33449B"/>
<path d="M672.904 256.208C660.15 242.105 646.856 228.327 633.842 214.378C632.238 212.671 628.706 212.873 626.915 214.242C624.82 215.861 625.11 218.165 626.713 219.888C639.746 233.837 653.022 247.599 665.775 261.717C667.338 263.456 670.93 263.207 672.702 261.854C674.817 260.219 674.467 257.946 672.904 256.208Z" fill="#33449B"/>
</svg>
