<svg width="1104" height="1229" viewBox="0 0 1104 1229" fill="none" xmlns="http://www.w3.org/2000/svg">
<path d="M277.637 156.665C331.176 211.828 345.592 250.278 281.856 305.348C228.857 351.145 180.639 344.736 135.257 292.061C90.0395 239.598 93.8135 193.566 147.024 147.604C200.235 101.643 237.272 108.169 260.642 135.304C263.08 138.145 265.354 140.774 267.768 143.99C260.924 149.553 251.43 157.393 242.335 165.257C233.029 173.308 224.121 180.984 218.402 186.641C216.995 185.022 215.636 183.026 214.417 181.594C203.775 169.247 191.562 170.233 177.005 182.815C157.995 199.247 158.628 216.359 186.546 248.776C212.893 279.362 231.365 286.052 252.602 267.696C267.768 254.597 268.636 242.884 255.884 225.631C246.179 234.011 235.818 243.307 227.919 250.513C225.504 247.297 219.222 239.997 216.433 236.757C211.018 230.49 206.494 225.208 202.79 221.335C215.917 210.35 228.857 199.153 238.561 190.773C249.297 181.5 263.432 169.646 277.239 157.017L277.637 156.665Z" fill="#33449B"/>
<path d="M429.245 219C423.815 190.679 417.584 162.544 408.401 121.092C399.172 79.3823 392.964 51.2481 386 23.5118L452.755 9C458.35 36.7363 464.558 64.8939 473.788 106.58C482.946 148.033 489.178 176.167 496 204.465L429.245 218.977V219Z" fill="#33449B"/>
<path d="M733.639 154.8C759.13 165.786 767.431 176.536 766.376 204.374C766.258 220.218 765.438 237.517 765.484 247L708.196 230.452C698.698 227.706 697.854 223.833 699.214 202.778C702.403 168.602 700.434 161.913 684.769 157.382C675.529 154.707 670.206 152.899 657.801 149.59C651.188 174.423 645.818 195.971 642.981 211.604L578 192.826C586.606 164.941 594.978 137.853 606.844 96.7063C618.639 55.8174 626.401 27.9791 633.624 0L738.681 30.3733C785.675 43.9638 807.601 69.2436 795.899 109.851C785.745 145.059 768.228 157.547 734.108 153.275L733.663 154.824L733.639 154.8ZM731.646 101.87C737.579 81.3084 730.192 74.1493 710.916 68.5863C705.522 67.0372 692.859 63.6337 682.776 61.0047C677.968 77.7171 673.138 94.4294 668.799 110.438C675.928 112.785 687.231 116.048 699.73 119.944C716.685 124.85 726.698 119.099 731.669 101.87H731.646Z" fill="#33449B"/>
<path d="M1013.98 209.897C1002.59 219.607 972.328 246.627 939.496 276.391C929.067 285.961 918.45 295.695 909.377 304.373C921.794 318 938.537 335.966 953.317 351.4C946.044 358.084 938.374 364.745 931.101 371.407C923.618 378.255 916.532 385.128 909.049 392L820 294.311C831.996 283.31 862.841 256.103 894.34 227.253C928.178 196.223 953.948 172.58 967.581 159L1014 209.92L1013.98 209.897Z" fill="#33449B"/>
<path d="M1056.96 660.991C1024 661.434 1007.43 644.932 1007.01 613.883C1006.61 583.37 1022.71 566.45 1055.66 566.008C1088.36 565.589 1103.59 582.626 1103.99 612.603C1104.39 643.116 1089.63 660.549 1056.93 660.991H1056.96Z" fill="#33449B"/>
<path d="M956.931 1092.98C951.55 1087.77 943.033 1080.08 935.288 1073.11C927.941 1066.5 918.629 1058.08 912.499 1052.92C923.215 1041.38 933.955 1029.81 943.595 1019.1C895.816 975.987 849.231 934.333 838 925.279C844.832 918.853 855.01 907.524 862.147 899.574C869.283 891.623 879.11 880.693 884.936 873C895.114 883.249 941.138 925.139 989.103 968.412C998.743 957.67 1009.06 945.778 1019.59 933.676C1025.35 939.235 1034.68 947.655 1042.01 954.269C1049.75 961.235 1058.27 968.928 1064 973.736L956.931 1093V1092.98Z" fill="#33449B"/>
<path d="M627.142 1031.21C629.812 1037.96 635.528 1050.8 643.374 1066.36C654.453 1063.33 665.275 1060.38 673.777 1058.06C681.764 1055.88 692.843 1052.86 704.18 1049.77C703.173 1032.88 702.142 1019.03 701.065 1011.02L767 993C764.517 1045.74 765.571 1172.23 766.438 1200.79L663.143 1229C648.551 1203.91 585.192 1095.53 555 1050.89L627.119 1031.19L627.142 1031.21ZM662.464 1103.8C671.716 1121.48 681.366 1139.6 690.337 1155.15C697.786 1167.24 704.063 1179.1 708.654 1187.81L709.427 1187.6C709.216 1177.69 708.677 1164.55 708.747 1149.58C708.045 1131.77 707.202 1111.5 706.522 1091.75L684.622 1097.73L662.464 1103.77V1103.8Z" fill="#33449B"/>
<path d="M366.826 1209.36C371.587 1195.14 383.665 1156.33 396.564 1113.84C400.598 1100.25 404.702 1086.41 408.009 1074.27C390.326 1069.02 366.662 1062.28 346 1056.7C348.814 1047.22 351.957 1037.53 354.771 1028.05C357.656 1018.31 360.212 1008.74 363.121 999L490 1036.66C485.356 1052.31 472.88 1091.57 460.708 1132.61C447.621 1176.72 437.653 1210.32 432.963 1229L366.826 1209.36Z" fill="#33449B"/>
<path d="M23 955.873C55.3553 950.287 114.151 936.16 146.577 940.619C142.579 926.211 144.075 911.145 149.219 894.53C158.967 853.534 167.29 830.466 170.072 820L216.057 870.946C221.784 877.306 222.696 881.506 220.312 888.007C212.924 911.685 201.025 946.322 198.804 968.193L200.417 969.976C221.551 950.757 240.744 932.969 257.389 916.753L303 967.324C280.721 986.473 259.61 1005.32 228.213 1033.88C196.606 1062.6 175.449 1082.19 154.853 1102L109.242 1051.43C129.113 1034.81 153.029 1013.08 177.53 990.815L176.641 989.829C164.321 990.932 151.416 992.551 139.236 994.593C109.522 1000.32 88.6224 1007.03 73.4734 1011.77L23.0234 955.849L23 955.873Z" fill="#33449B"/>
<path d="M50.6033 540.155C83.4659 542.152 98.7236 559.954 96.8457 591.236C94.9913 621.979 77.668 637.808 44.8288 635.836C12.2478 633.863 -1.67186 615.591 0.159059 585.389C2.01345 554.669 18.0223 538.206 50.6033 540.155Z" fill="#33449B"/>
</svg>
